<svg width="150" height="150" viewBox="0 0 150 150" fill="none" xmlns="http://www.w3.org/2000/svg">
<g clip-path="url(#clip0_453_5358)">
<mask id="mask0_453_5358" style="mask-type:luminance" maskUnits="userSpaceOnUse" x="0" y="0" width="150" height="150">
<path d="M150 0H0V150H150V0Z" fill="white"/>
</mask>
<g mask="url(#mask0_453_5358)">
<path d="M21.7506 101.7C14.4721 101.7 8.55078 95.7778 8.55078 88.4998C8.55078 81.2218 14.4718 75.2998 21.7506 75.2998C29.0295 75.2998 34.9508 81.2211 34.9508 88.4998C34.9508 95.7778 29.0292 101.7 21.7506 101.7ZM21.7506 78.9478C16.4826 78.9478 12.1973 83.2326 12.1973 88.4998C12.1973 93.7671 16.4826 98.0518 21.7506 98.0518C27.0188 98.0518 31.304 93.7671 31.304 88.4998C31.304 83.2326 27.0188 78.9478 21.7506 78.9478Z" fill="black"/>
<path d="M115.501 101.7C108.222 101.7 102.301 95.7778 102.301 88.4998C102.301 81.2218 108.222 75.2998 115.501 75.2998C122.779 75.2998 128.701 81.2211 128.701 88.4998C128.701 95.7778 122.779 101.7 115.501 101.7ZM115.501 78.9478C110.233 78.9478 105.947 83.2326 105.947 88.4998C105.947 93.7671 110.233 98.0518 115.501 98.0518C120.769 98.0518 125.054 93.7671 125.054 88.4998C125.054 83.2326 120.769 78.9478 115.501 78.9478Z" fill="black"/>
<path d="M31.0867 72.3795C31.0867 74.5182 29.3532 76.2525 27.2133 76.2525H13.1766C11.0368 76.2525 9.30273 74.5182 9.30273 72.3795C9.30273 70.2419 11.0366 68.5078 13.1766 68.5078H27.2136C29.3532 68.5078 31.0867 70.2414 31.0867 72.3795Z" fill="white" stroke="black" stroke-width="3.75"/>
<path d="M129.041 72.3795C129.041 74.5182 127.307 76.2525 125.167 76.2525H111.13C108.99 76.2525 107.257 74.5183 107.257 72.3795C107.257 70.2417 108.99 68.5078 111.13 68.5078H125.167C127.307 68.5078 129.041 70.2414 129.041 72.3795Z" fill="white" stroke="black" stroke-width="3.75"/>
<path d="M45.5083 54.75L57.0029 54.7549C58.5016 54.7549 59.7603 55.9981 59.7603 57.583L59.7653 69.2668C59.7653 70.8538 58.5079 72.0946 57.0101 72.0943L45.5149 72.0904C44.0157 72.0898 42.7559 70.8459 42.7544 69.259L42.75 57.5748C42.7503 55.9928 44.0077 54.7503 45.5083 54.75Z" fill="#D4EBE9" stroke="black" stroke-width="3.75"/>
<path d="M105.958 71.1317C112.661 64.42 114.077 54.3083 110.203 45.9243L109.765 44.9751L110.504 44.2352L126.532 28.1854L116.549 18.2021L100.53 34.2427L99.7895 34.9844L98.8385 34.5438C90.467 30.6664 80.3705 32.0839 73.6682 38.7951L26.984 85.5404L26.9838 85.5412C25.5791 86.9467 25.5706 89.3099 27.0769 90.8182L54.008 117.784C55.5134 119.291 57.8699 119.283 59.2731 117.877L105.958 71.1317ZM105.958 71.1317L106.957 72.1294" stroke="black" stroke-width="3.75"/>
<path d="M99.9352 77.1608L77.556 99.5693L45.2637 67.2353L67.6434 44.8271L99.9352 77.1608Z" fill="#FFD1D1" stroke="black" stroke-width="3.75"/>
<path d="M45.6623 66.4111L45.663 66.4118C46.723 67.4711 46.7339 69.2391 45.6122 70.3607L37.3527 78.626C36.2314 79.7472 34.4642 79.736 33.4055 78.6762L25.2788 70.5476C24.2195 69.4878 24.2081 67.7188 25.3294 66.5954L33.5898 58.3307C34.7098 57.2106 36.4774 57.2209 37.5387 58.2816L45.6623 66.4111Z" fill="#D4F4F1" stroke="black" stroke-width="3.75"/>
<path d="M35.1593 147.295L35.1592 147.294L20.0192 70.2904C20.0192 70.2905 20.0192 70.2903 20.0192 70.2904C19.9332 69.8522 20.0476 69.3972 20.3309 69.0516C20.6147 68.7067 21.0365 68.5078 21.4814 68.5078H116.862C117.306 68.5078 117.729 68.7068 118.013 69.0516C118.296 69.3967 118.41 69.8513 118.324 70.29L103.185 147.295C103.047 147.995 102.433 148.5 101.722 148.5H36.6206C35.9107 148.5 35.2969 147.996 35.1593 147.295Z" fill="white"/>
<path d="M20.0192 70.2904L35.1592 147.294L35.1593 147.295C35.2969 147.996 35.9107 148.5 36.6206 148.5H101.722C102.433 148.5 103.047 147.995 103.185 147.295L118.324 70.29C118.41 69.8513 118.296 69.3967 118.013 69.0516C117.729 68.7068 117.306 68.5078 116.862 68.5078H21.4814C21.0365 68.5078 20.6147 68.7067 20.3309 69.0516C20.0476 69.3972 19.9332 69.8522 20.0192 70.2904ZM20.0192 70.2904C20.0192 70.2903 20.0192 70.2905 20.0192 70.2904Z" stroke="black" stroke-width="3.75"/>
<path d="M30.7471 124.854H107.596L105.362 136.224H32.9829L30.7471 124.854Z" fill="white" stroke="black" stroke-width="3.75"/>
<path d="M116.708 18.0417L132.116 2.61341C132.584 2.14474 133.554 2.05671 134.292 2.7956L141.908 10.4214C142.647 11.1614 142.559 12.1361 142.09 12.606L126.685 28.0313L116.708 18.0417Z" fill="#FFD1D1" stroke="black" stroke-width="3.75"/>
<path d="M126 8.60145L135.4 18L138 15.3986L128.6 6L126 8.60145Z" fill="black"/>
<path d="M131.625 123.188C131.625 111.9 122.475 102.75 111.188 102.75C99.9 102.75 90.75 111.9 90.75 123.188C90.75 134.475 99.9 143.625 111.188 143.625C122.475 143.625 131.625 134.475 131.625 123.188Z" fill="white" stroke="black" stroke-width="3.75" stroke-linecap="round" stroke-linejoin="round"/>
<path d="M111 133.125H111.375" stroke="#FF8787" stroke-width="4.5" stroke-linecap="round" stroke-linejoin="round"/>
<path d="M111.188 124.688V113.25" stroke="#FF8787" stroke-width="4.5" stroke-linecap="round" stroke-linejoin="round"/>
</g>
</g>
<defs>
<clipPath id="clip0_453_5358">
<rect width="150" height="150" fill="white"/>
</clipPath>
</defs>
</svg>
