<svg viewBox="0 0 168 25" fill="none" xmlns="http://www.w3.org/2000/svg">
<g clip-path="url(#clip0_138_188)">
<path d="M15.7491 9.76046C17.7343 9.76046 19.4217 10.4884 20.8113 11.878C22.2009 13.2676 22.9288 14.955 22.9288 16.9071C22.9288 18.8923 22.2009 20.6128 20.8113 22.0024C19.4217 23.392 17.7343 24.0868 15.7491 24.0868H3.04394C2.38221 24.0868 1.85283 23.8883 1.38962 23.4251C0.926416 22.9619 0.727898 22.4325 0.727898 21.7708C0.727898 21.1752 0.926416 20.6458 1.38962 20.1826C1.85283 19.7194 2.38221 19.4878 3.04394 19.4878H15.7491C16.4439 19.4878 17.0394 19.2562 17.5688 18.7268C18.0651 18.2305 18.3298 17.635 18.3298 16.9071C18.3298 16.2123 18.0651 15.6167 17.5688 15.1204C17.0394 14.6241 16.4439 14.3594 15.7491 14.3594H14.8557H11.1501H7.17972C5.19455 14.3594 3.47406 13.6646 2.08444 12.275C0.694812 10.8854 0 9.1649 0 7.17973C0 5.19455 0.694812 3.50715 2.08444 2.11752C3.47406 0.727899 5.19455 0 7.17972 0H19.7525C20.3812 0 20.9105 0.231603 21.3737 0.694813C21.8039 1.15802 22.0355 1.6874 22.0355 2.31604C22.0355 2.97777 21.8039 3.50715 21.3737 3.93727C20.9105 4.40048 20.3812 4.599 19.7525 4.599H7.17972C6.45183 4.599 5.85627 4.86369 5.35998 5.35998C4.8306 5.88936 4.59899 6.48491 4.59899 7.17973C4.59899 7.90762 4.8306 8.50318 5.35998 8.99947C5.85627 9.52885 6.45183 9.76046 7.17972 9.76046H11.1501H14.8557H15.7491ZM36.871 0C39.0547 0 41.073 0.562468 42.8927 1.65432C44.7125 2.74616 46.1683 4.20196 47.2601 6.02171C48.352 7.84145 48.9144 9.85971 48.9144 12.0434C48.9144 14.2602 48.352 16.2785 47.2601 18.0982C46.1683 19.951 44.7125 21.4068 42.8927 22.4656C41.073 23.5574 39.0547 24.0868 36.871 24.0868H36.7056C34.4888 24.0868 32.4706 23.5574 30.6508 22.4656C28.798 21.4068 27.3422 19.951 26.2834 18.0982C25.1916 16.2785 24.6622 14.2602 24.6622 12.0434C24.6622 9.85971 25.1916 7.84145 26.2834 6.02171C27.3422 4.20196 28.798 2.74616 30.6508 1.65432C32.4706 0.562468 34.4888 0 36.7056 0H36.871ZM36.871 19.4878C38.9224 19.4878 40.676 18.7599 42.1318 17.3041C43.5875 15.8483 44.3154 14.0948 44.3154 12.0434C44.3154 9.99206 43.5875 8.23849 42.1318 6.78269C40.676 5.32689 38.9224 4.599 36.871 4.599H36.7056C34.6542 4.599 32.9007 5.32689 31.4449 6.78269C29.9891 8.23849 29.2612 9.99206 29.2612 12.0434C29.2612 14.0948 29.9891 15.8483 31.4449 17.3041C32.9007 18.7599 34.6542 19.4878 36.7056 19.4878H36.871ZM63.0196 0C65.2033 0 67.2214 0.562468 69.0412 1.65432C70.8609 2.74616 72.3167 4.20196 73.4085 6.02171C74.5004 7.84145 75.0629 9.85971 75.0629 12.0434C75.0629 14.2602 74.5004 16.2785 73.4085 18.0982C72.3167 19.951 70.8609 21.4068 69.0412 22.4656C67.2214 23.5574 65.2033 24.0868 63.0196 24.0868H62.8542C60.6374 24.0868 58.6191 23.5574 56.7994 22.4656C54.9465 21.4068 53.4907 19.951 52.432 18.0982C51.3401 16.2785 50.8107 14.2602 50.8107 12.0434C50.8107 9.85971 51.3401 7.84145 52.432 6.02171C53.4907 4.20196 54.9465 2.74616 56.7994 1.65432C58.6191 0.562468 60.6374 0 62.8542 0H63.0196ZM63.0196 19.4878C65.0709 19.4878 66.8244 18.7599 68.2802 17.3041C69.736 15.8483 70.4639 14.0948 70.4639 12.0434C70.4639 9.99206 69.736 8.23849 68.2802 6.78269C66.8244 5.32689 65.0709 4.599 63.0196 4.599H62.8542C60.8028 4.599 59.0492 5.32689 57.5934 6.78269C56.1376 8.23849 55.4097 9.99206 55.4097 12.0434C55.4097 14.0948 56.1376 15.8483 57.5934 17.3041C59.0492 18.7599 60.8028 19.4878 62.8542 19.4878H63.0196ZM89.1682 0C91.3519 0 93.3702 0.562468 95.1899 1.65432C97.0097 2.74616 98.4655 4.20196 99.5573 6.02171C100.649 7.84145 101.212 9.85971 101.212 12.0434C101.212 14.2602 100.649 16.2785 99.5573 18.0982C98.4655 19.951 97.0097 21.4068 95.1899 22.4656C93.3702 23.5574 91.3519 24.0868 89.1682 24.0868H89.0028C86.786 24.0868 84.7677 23.5574 82.948 22.4656C81.0952 21.4068 79.6394 19.951 78.5806 18.0982C77.4887 16.2785 76.9594 14.2602 76.9594 12.0434C76.9594 9.85971 77.4887 7.84145 78.5806 6.02171C79.6394 4.20196 81.0952 2.74616 82.948 1.65432C84.7677 0.562468 86.786 0 89.0028 0H89.1682ZM89.1682 19.4878C91.2196 19.4878 92.9731 18.7599 94.4289 17.3041C95.8847 15.8483 96.6126 14.0948 96.6126 12.0434C96.6126 9.99206 95.8847 8.23849 94.4289 6.78269C92.9731 5.32689 91.2196 4.599 89.1682 4.599H89.0028C86.9514 4.599 85.1979 5.32689 83.7421 6.78269C82.2863 8.23849 81.5584 9.99206 81.5584 12.0434C81.5584 14.0948 82.2863 15.8483 83.7421 17.3041C85.1979 18.7599 86.9514 19.4878 89.0028 19.4878H89.1682ZM106.085 24.0868C105.424 24.0868 104.894 23.8883 104.431 23.4251C103.968 22.9619 103.769 22.4325 103.769 21.7708V2.31604C103.769 1.6874 103.968 1.15802 104.431 0.694813C104.894 0.231603 105.424 0 106.085 0C106.681 0 107.21 0.231603 107.673 0.694813C108.137 1.15802 108.368 1.6874 108.368 2.31604V19.4878H122.529C123.158 19.4878 123.687 19.7194 124.15 20.1826C124.614 20.6458 124.845 21.1752 124.845 21.7708C124.845 22.4325 124.614 22.9619 124.15 23.4251C123.687 23.8883 123.158 24.0868 122.529 24.0868H106.085Z" fill="black"/>
<path d="M133.52 2.82226C133.907 2.991 134.056 3.27885 133.976 3.68582L132.835 7.30876C132.736 7.59661 132.537 7.75543 132.239 7.79513H132.17C131.912 7.79513 131.713 7.67602 131.564 7.42787L130.502 5.4427L129.44 7.42787C129.281 7.67602 129.073 7.79513 128.825 7.79513H128.765C128.467 7.75543 128.269 7.59661 128.17 7.30876L127.028 3.68582C126.939 3.27885 127.088 2.991 127.485 2.82226C127.892 2.74286 128.18 2.89174 128.348 3.27885L128.994 5.33351L129.887 3.66596L129.897 3.65604V3.64611C129.907 3.63619 129.917 3.62626 129.927 3.60641C129.927 3.60641 129.936 3.59648 129.936 3.58656C129.946 3.57663 129.956 3.5667 129.966 3.54685L129.986 3.527C129.986 3.51707 129.996 3.50715 130.016 3.49722L130.036 3.47737L130.066 3.44759C130.066 3.44759 130.075 3.43767 130.095 3.42774L130.115 3.40789C130.125 3.40789 130.145 3.39796 130.165 3.38804C130.165 3.38804 130.165 3.37811 130.175 3.37811C130.195 3.37811 130.204 3.36819 130.224 3.35826C130.264 3.33841 130.314 3.32848 130.363 3.30863C130.383 3.30863 130.393 3.30863 130.413 3.29871H130.433H130.472H130.502H130.532H130.572H130.592C130.602 3.30863 130.611 3.30863 130.631 3.30863H130.651C130.671 3.31856 130.681 3.32848 130.701 3.32848L130.76 3.34833H130.77C130.79 3.35826 130.81 3.36819 130.83 3.37811C130.85 3.39796 130.87 3.40789 130.889 3.40789C130.889 3.41782 130.889 3.42774 130.899 3.42774C130.909 3.43767 130.919 3.44759 130.939 3.45752C130.939 3.45752 130.949 3.46745 130.959 3.46745L130.989 3.49722L131.018 3.527L131.038 3.54685L131.058 3.58656L131.078 3.60641C131.078 3.62626 131.088 3.63619 131.108 3.64611V3.65604V3.66596H131.118L132.011 5.33351L132.656 3.27885C132.815 2.89174 133.103 2.74286 133.52 2.82226ZM135.647 1.90908C135.825 1.90908 135.984 1.97856 136.123 2.11752C136.262 2.25649 136.331 2.4153 136.331 2.60389V7.10032C136.331 7.29884 136.262 7.45765 136.123 7.59661C135.984 7.73558 135.825 7.79513 135.647 7.79513C135.448 7.79513 135.289 7.73558 135.15 7.59661C135.011 7.45765 134.952 7.29884 134.952 7.10032V2.60389C134.952 2.4153 135.011 2.25649 135.15 2.11752C135.289 1.97856 135.448 1.90908 135.647 1.90908ZM135.647 0.181976C135.835 0.181976 135.994 0.251458 136.133 0.390421C136.272 0.529383 136.341 0.698123 136.341 0.886715C136.341 1.08523 136.272 1.24405 136.133 1.38301C135.994 1.52197 135.835 1.59145 135.647 1.59145C135.448 1.59145 135.279 1.52197 135.14 1.38301C135.001 1.24405 134.942 1.08523 134.942 0.886715C134.942 0.698123 135.001 0.529383 135.14 0.390421C135.279 0.251458 135.448 0.181976 135.647 0.181976ZM138.473 1.29368C138.652 1.29368 138.811 1.36316 138.95 1.50212C139.089 1.64108 139.158 1.7999 139.158 1.98849V2.79249H139.397C139.585 2.79249 139.744 2.86197 139.883 3.00093C140.012 3.13989 140.081 3.29871 140.081 3.4873C140.081 3.67589 140.012 3.8347 139.883 3.97367C139.744 4.11263 139.585 4.17218 139.397 4.17218H139.158V5.78018C139.158 5.95884 139.218 6.10773 139.347 6.22684C139.466 6.35588 139.615 6.41543 139.794 6.41543C139.982 6.41543 140.141 6.48492 140.28 6.62388C140.419 6.76284 140.488 6.92165 140.488 7.10032C140.488 7.29884 140.419 7.45765 140.28 7.59661C140.141 7.73558 139.982 7.79513 139.794 7.79513C139.238 7.79513 138.761 7.60654 138.364 7.2095C137.967 6.81247 137.779 6.33603 137.779 5.78018V1.98849C137.779 1.7999 137.838 1.64108 137.977 1.50212C138.116 1.36316 138.275 1.29368 138.473 1.29368ZM141.995 0.241532C142.174 0.241532 142.333 0.311013 142.472 0.449975C142.611 0.588938 142.68 0.747753 142.68 0.926418V2.79249H143.534C144.209 2.79249 144.784 3.03071 145.261 3.50715C145.737 3.98359 145.975 4.55929 145.975 5.22433V7.10032C145.975 7.29884 145.906 7.45765 145.767 7.59661C145.628 7.73558 145.469 7.79513 145.281 7.79513C145.082 7.79513 144.923 7.73558 144.784 7.59661C144.645 7.45765 144.586 7.29884 144.586 7.10032V5.22433C144.586 4.93648 144.477 4.68833 144.278 4.47989C144.07 4.28137 143.821 4.17218 143.534 4.17218H142.68V7.10032C142.68 7.29884 142.611 7.45765 142.472 7.59661C142.333 7.73558 142.174 7.79513 141.995 7.79513C141.797 7.79513 141.638 7.73558 141.499 7.59661C141.36 7.45765 141.3 7.29884 141.3 7.10032V0.926418C141.3 0.747753 141.36 0.588938 141.499 0.449975C141.638 0.311013 141.797 0.241532 141.995 0.241532Z" fill="black"/>
<path d="M140.481 12.9897C141.143 13.2213 141.424 13.6845 141.325 14.3793L138.943 24.1232C138.777 24.6526 138.43 24.9338 137.9 25H137.818C137.354 25 136.99 24.7684 136.759 24.2886L134.31 18.4489L131.862 24.2886C131.614 24.7684 131.267 25 130.803 25H130.704C130.175 24.9338 129.827 24.6526 129.678 24.1232L127.296 14.3793C127.197 13.6845 127.478 13.2213 128.14 12.9897C128.835 12.8904 129.298 13.1716 129.53 13.8334L131.085 20.1859L133.252 15.0245C133.252 15.0245 133.252 15.0079 133.268 14.9748C133.268 14.9748 133.285 14.9583 133.301 14.9252C133.301 14.9087 133.301 14.8921 133.318 14.8756C133.318 14.859 133.334 14.8425 133.351 14.826C133.351 14.8094 133.368 14.7929 133.384 14.7763L133.417 14.7432C133.417 14.7267 133.434 14.7102 133.467 14.6936L133.5 14.6605C133.5 14.644 133.516 14.6274 133.533 14.6109C133.549 14.6109 133.566 14.5944 133.583 14.5778C133.583 14.5778 133.599 14.5613 133.632 14.5447L133.665 14.5116L133.731 14.4786L133.765 14.4455C133.781 14.4455 133.814 14.4289 133.847 14.4124C133.847 14.4124 133.864 14.4124 133.864 14.3958C133.93 14.3793 134.013 14.3628 134.079 14.3297H134.129C134.145 14.3297 134.162 14.3297 134.195 14.3131H134.244H134.31H134.36H134.426C134.443 14.3297 134.459 14.3297 134.476 14.3297H134.526C134.559 14.3462 134.608 14.3628 134.641 14.3628C134.674 14.3793 134.724 14.3958 134.757 14.3958C134.757 14.4124 134.774 14.4124 134.79 14.4124L134.856 14.4455L134.889 14.4786L134.956 14.5116L134.989 14.5447C135.005 14.5613 135.022 14.5778 135.038 14.5778C135.038 14.5944 135.055 14.6109 135.088 14.6109C135.088 14.6274 135.105 14.644 135.121 14.6605L135.154 14.6936C135.171 14.7102 135.187 14.7267 135.204 14.7432L135.237 14.7763C135.237 14.7929 135.253 14.8094 135.27 14.826C135.27 14.8425 135.287 14.859 135.287 14.8756C135.287 14.8921 135.303 14.9087 135.32 14.9252C135.32 14.9583 135.336 14.9748 135.353 14.9748C135.353 15.0079 135.369 15.0245 135.369 15.0245L137.536 20.1859L139.091 13.8334C139.323 13.1716 139.786 12.8904 140.481 12.9897ZM144.407 15.1899C144.705 15.1899 144.97 15.3057 145.201 15.5373C145.433 15.7689 145.549 16.0336 145.549 16.3479V23.842C145.549 24.1728 145.433 24.4375 145.201 24.6691C144.97 24.9007 144.705 25 144.407 25C144.076 25 143.812 24.9007 143.58 24.6691C143.348 24.4375 143.249 24.1728 143.249 23.842V16.3479C143.249 16.0336 143.348 15.7689 143.58 15.5373C143.812 15.3057 144.076 15.1899 144.407 15.1899ZM144.407 12.3114C144.721 12.3114 144.986 12.4272 145.218 12.6588C145.449 12.8904 145.565 13.1716 145.565 13.486C145.565 13.8168 145.449 14.0815 145.218 14.3131C144.986 14.5447 144.721 14.6605 144.407 14.6605C144.076 14.6605 143.795 14.5447 143.563 14.3131C143.332 14.0815 143.233 13.8168 143.233 13.486C143.233 13.1716 143.332 12.8904 143.563 12.6588C143.795 12.4272 144.076 12.3114 144.407 12.3114ZM148.688 25C148.357 25 148.092 24.9007 147.861 24.6691C147.629 24.4375 147.53 24.1728 147.53 23.842V21.2447V17.8203C147.53 17.5059 147.629 17.2413 147.861 17.0097C148.092 16.7781 148.357 16.6622 148.688 16.6622C149.151 16.6622 149.498 16.8939 149.73 17.3405C150.441 16.8939 151.235 16.6622 152.112 16.6622C153.369 16.6622 154.461 17.1255 155.355 18.0188C156.248 18.9121 156.711 19.9874 156.711 21.2447V23.842C156.711 24.1728 156.595 24.4375 156.364 24.6691C156.132 24.9007 155.868 25 155.553 25C155.222 25 154.958 24.9007 154.743 24.6691C154.511 24.4375 154.412 24.1728 154.412 23.842V21.2447C154.412 20.6161 154.18 20.0867 153.733 19.64C153.287 19.1933 152.741 18.9617 152.112 18.9617C151.484 18.9617 150.938 19.1933 150.491 19.64C150.044 20.0867 149.829 20.6161 149.829 21.2447V23.842C149.829 24.1728 149.713 24.4375 149.482 24.6691C149.25 24.9007 148.986 25 148.688 25ZM167.45 20.7815C167.45 21.0958 167.335 21.3605 167.119 21.5756C166.904 21.7906 166.64 21.8899 166.342 21.8899H160.585C160.965 22.4854 161.495 22.7832 162.173 22.7832H165.598C165.895 22.7832 166.143 22.899 166.359 23.1141C166.574 23.3457 166.689 23.5938 166.689 23.8916C166.689 24.2059 166.574 24.4706 166.359 24.6857C166.143 24.9007 165.895 25 165.598 25H162.173C161.048 25 160.105 24.603 159.311 23.8089C158.517 23.0148 158.12 22.0719 158.12 20.9469V20.6161C158.12 19.4911 158.517 18.5482 159.311 17.7541C160.105 16.96 161.048 16.563 162.173 16.563H163.397C164.506 16.563 165.465 16.96 166.259 17.7541C167.053 18.5482 167.45 19.4911 167.45 20.6161V20.7815ZM162.173 18.7632C161.495 18.7632 160.965 19.0775 160.585 19.6731H164.985C164.588 19.0775 164.059 18.7632 163.397 18.7632H162.173Z" fill="#FF8080"/>
</g>
<defs>
<clipPath id="clip0_138_188">
<rect width="167.456" height="25" fill="white"/>
</clipPath>
</defs>
</svg>
