<svg width="100%" height="100%" viewBox="0 0 18867 3640" fill="none" xmlns="http://www.w3.org/2000/svg">
<path d="M2380 1475C2680 1475 2935 1585 3145 1795C3355 2005 3465 2260 3465 2555C3465 2855 3355 3115 3145 3325C2935 3535 2680 3640 2380 3640H460C360 3640 280 3610 210 3540C140 3470 110 3390 110 3290C110 3200 140 3120 210 3050C280 2980 360 2945 460 2945H2380C2485 2945 2575 2910 2655 2830C2730 2755 2770 2665 2770 2555C2770 2450 2730 2360 2655 2285C2575 2210 2485 2170 2380 2170H2245H1685H1085C785 2170 525 2065 315 1855C105 1645 0 1385 0 1085C0 785 105 530 315 320C525 110 785 0 1085 0H2985C3080 0 3160 34.9998 3230 105C3295 175 3330 255 3330 350C3330 450 3295 530 3230 595C3160 665 3080 695 2985 695H1085C975 695 885 735 810 810C730 890 695 980 695 1085C695 1195 730 1285 810 1360C885 1440 975 1475 1085 1475H1685H2245H2380ZM5571.95 0C5901.95 0 6206.95 85.0001 6481.95 250C6756.95 415 6976.95 635 7141.95 910C7306.95 1185 7391.95 1490 7391.95 1820C7391.95 2155 7306.95 2460 7141.95 2735C6976.95 3015 6756.95 3235 6481.95 3395C6206.95 3560 5901.95 3640 5571.95 3640H5546.95C5211.95 3640 4906.95 3560 4631.95 3395C4351.95 3235 4131.95 3015 3971.95 2735C3806.95 2460 3726.95 2155 3726.95 1820C3726.95 1490 3806.95 1185 3971.95 910C4131.95 635 4351.95 415 4631.95 250C4906.95 85.0001 5211.95 0 5546.95 0H5571.95ZM5571.95 2945C5881.95 2945 6146.95 2835 6366.95 2615C6586.95 2395 6696.95 2130 6696.95 1820C6696.95 1510 6586.95 1245 6366.95 1025C6146.95 805 5881.95 695 5571.95 695H5546.95C5236.95 695 4971.95 805 4751.95 1025C4531.95 1245 4421.95 1510 4421.95 1820C4421.95 2130 4531.95 2395 4751.95 2615C4971.95 2835 5236.95 2945 5546.95 2945H5571.95ZM9523.52 0C9853.52 0 10158.5 85.0001 10433.5 250C10708.5 415 10928.5 635 11093.5 910C11258.5 1185 11343.5 1490 11343.5 1820C11343.5 2155 11258.5 2460 11093.5 2735C10928.5 3015 10708.5 3235 10433.5 3395C10158.5 3560 9853.52 3640 9523.52 3640H9498.52C9163.52 3640 8858.52 3560 8583.52 3395C8303.52 3235 8083.52 3015 7923.52 2735C7758.52 2460 7678.52 2155 7678.52 1820C7678.52 1490 7758.52 1185 7923.52 910C8083.52 635 8303.52 415 8583.52 250C8858.52 85.0001 9163.52 0 9498.52 0H9523.52ZM9523.52 2945C9833.52 2945 10098.5 2835 10318.5 2615C10538.5 2395 10648.5 2130 10648.5 1820C10648.5 1510 10538.5 1245 10318.5 1025C10098.5 805 9833.52 695 9523.52 695H9498.52C9188.52 695 8923.52 805 8703.52 1025C8483.52 1245 8373.52 1510 8373.52 1820C8373.52 2130 8483.52 2395 8703.52 2615C8923.52 2835 9188.52 2945 9498.52 2945H9523.52ZM13475.1 0C13805.1 0 14110.1 85.0001 14385.1 250C14660.1 415 14880.1 635 15045.1 910C15210.1 1185 15295.1 1490 15295.1 1820C15295.1 2155 15210.1 2460 15045.1 2735C14880.1 3015 14660.1 3235 14385.1 3395C14110.1 3560 13805.1 3640 13475.1 3640H13450.1C13115.1 3640 12810.1 3560 12535.1 3395C12255.1 3235 12035.1 3015 11875.1 2735C11710.1 2460 11630.1 2155 11630.1 1820C11630.1 1490 11710.1 1185 11875.1 910C12035.1 635 12255.1 415 12535.1 250C12810.1 85.0001 13115.1 0 13450.1 0H13475.1ZM13475.1 2945C13785.1 2945 14050.1 2835 14270.1 2615C14490.1 2395 14600.1 2130 14600.1 1820C14600.1 1510 14490.1 1245 14270.1 1025C14050.1 805 13785.1 695 13475.1 695H13450.1C13140.1 695 12875.1 805 12655.1 1025C12435.1 1245 12325.1 1510 12325.1 1820C12325.1 2130 12435.1 2395 12655.1 2615C12875.1 2835 13140.1 2945 13450.1 2945H13475.1ZM16031.6 3640C15931.6 3640 15851.6 3610 15781.6 3540C15711.6 3470 15681.6 3390 15681.6 3290V350C15681.6 255 15711.6 175 15781.6 105C15851.6 34.9998 15931.6 0 16031.6 0C16121.6 0 16201.6 34.9998 16271.6 105C16341.6 175 16376.6 255 16376.6 350V2945H18516.6C18611.6 2945 18691.6 2980 18761.6 3050C18831.6 3120 18866.6 3200 18866.6 3290C18866.6 3390 18831.6 3470 18761.6 3540C18691.6 3610 18611.6 3640 18516.6 3640H16031.6Z" fill="black"/>
</svg>
